<svg xmlns="http://www.w3.org/2000/svg" viewBox="0 0 680 354" width="680" height="354" font-family="Arial, Helvetica, sans-serif" role="img" aria-labelledby="f1t">
<title id="f1t">Projected US employment change 2024–34, selected occupations (BLS, 2026)</title>
<rect width="680" height="354" fill="#fcfcfb"/>
<text x="16" y="24" font-size="15" font-weight="700" fill="#0b0b0b">Data jobs are projected to grow ten times faster than average</text>
<text x="16" y="43" font-size="12.5" fill="#52514e">Projected change in US employment, 2024–34, %</text>
<line x1="250.0" y1="52" x2="250.0" y2="302" stroke="#e4e3df" stroke-width="1"/>
<text x="250.0" y="318" font-size="11.5" fill="#52514e" text-anchor="middle">-10</text>
<line x1="324.0" y1="52" x2="324.0" y2="302" stroke="#e4e3df" stroke-width="1"/>
<text x="324.0" y="318" font-size="11.5" fill="#52514e" text-anchor="middle">0</text>
<line x1="398.0" y1="52" x2="398.0" y2="302" stroke="#e4e3df" stroke-width="1"/>
<text x="398.0" y="318" font-size="11.5" fill="#52514e" text-anchor="middle">+10</text>
<line x1="472.0" y1="52" x2="472.0" y2="302" stroke="#e4e3df" stroke-width="1"/>
<text x="472.0" y="318" font-size="11.5" fill="#52514e" text-anchor="middle">+20</text>
<line x1="546.0" y1="52" x2="546.0" y2="302" stroke="#e4e3df" stroke-width="1"/>
<text x="546.0" y="318" font-size="11.5" fill="#52514e" text-anchor="middle">+30</text>
<line x1="620.0" y1="52" x2="620.0" y2="302" stroke="#e4e3df" stroke-width="1"/>
<text x="620.0" y="318" font-size="11.5" fill="#52514e" text-anchor="middle">+40</text>
<g><title>Data scientists: +33.5%, +82,500 jobs</title>
<text x="238" y="72.5" font-size="13" fill="#0b0b0b" text-anchor="end" font-weight="600">Data scientists</text>
<path d="M324.0,58 H567.9 Q571.9,58 571.9,62 V74 Q571.9,78 567.9,78 H324.0 Z" fill="#2a78d6"/>
<text x="577.9" y="72.5" font-size="12.5" fill="#0b0b0b" text-anchor="start" font-weight="600">+33.5%</text></g>
<g><title>Information security analysts: +28.5%, +52,100 jobs</title>
<text x="238" y="108.5" font-size="13" fill="#0b0b0b" text-anchor="end">Information security analysts</text>
<path d="M324.0,94 H530.9 Q534.9,94 534.9,98 V110 Q534.9,114 530.9,114 H324.0 Z" fill="#2a78d6"/>
<text x="540.9" y="108.5" font-size="12.5" fill="#0b0b0b" text-anchor="start" font-weight="600">+28.5%</text></g>
<g><title>Actuaries: +21.8%, +7,300 jobs</title>
<text x="238" y="144.5" font-size="13" fill="#0b0b0b" text-anchor="end">Actuaries</text>
<path d="M324.0,130 H481.3 Q485.3,130 485.3,134 V146 Q485.3,150 481.3,150 H324.0 Z" fill="#2a78d6"/>
<text x="491.3" y="144.5" font-size="12.5" fill="#0b0b0b" text-anchor="start" font-weight="600">+21.8%</text></g>
<g><title>Operations research analysts: +21.5%, +24,100 jobs</title>
<text x="238" y="180.5" font-size="13" fill="#0b0b0b" text-anchor="end">Operations research analysts</text>
<path d="M324.0,166 H479.1 Q483.1,166 483.1,170 V182 Q483.1,186 479.1,186 H324.0 Z" fill="#2a78d6"/>
<text x="489.1" y="180.5" font-size="12.5" fill="#0b0b0b" text-anchor="start" font-weight="600">+21.5%</text></g>
<g><title>Software developers: +15.8%, +267,700 jobs</title>
<text x="238" y="216.5" font-size="13" fill="#0b0b0b" text-anchor="end">Software developers</text>
<path d="M324.0,202 H436.9 Q440.9,202 440.9,206 V218 Q440.9,222 436.9,222 H324.0 Z" fill="#2a78d6"/>
<text x="446.9" y="216.5" font-size="12.5" fill="#0b0b0b" text-anchor="start" font-weight="600">+15.8%</text></g>
<g><title>All occupations: +3.1%</title>
<text x="238" y="252.5" font-size="13" fill="#0b0b0b" text-anchor="end">All occupations</text>
<path d="M324.0,238 H342.9 Q346.9,238 346.9,242 V254 Q346.9,258 342.9,258 H324.0 Z" fill="#a3a29c"/>
<text x="352.9" y="252.5" font-size="12.5" fill="#0b0b0b" text-anchor="start" font-weight="600">+3.1%</text></g>
<g><title>Customer service representatives: -5.5%, -153,700 jobs</title>
<text x="238" y="288.5" font-size="13" fill="#0b0b0b" text-anchor="end">Customer service representatives</text>
<path d="M324.0,274 H287.3 Q283.3,274 283.3,278 V290 Q283.3,294 287.3,294 H324.0 Z" fill="#2a78d6"/>
<text x="277.3" y="288.5" font-size="12.5" fill="#0b0b0b" text-anchor="end" font-weight="600">-5.5%</text></g>
<line x1="324.0" y1="52" x2="324.0" y2="302" stroke="#52514e" stroke-width="1"/>
<text x="16" y="344" font-size="11" fill="#52514e">Source: U.S. Bureau of Labor Statistics (2026), The Economics Daily, 16 July 2026.</text></svg>